<?xml version="1.0" encoding="iso-8859-1"?>
<!-- Generator: Adobe Illustrator 16.0.0, SVG Export Plug-In . SVG Version: 6.00 Build 0)  -->
<!DOCTYPE svg PUBLIC "-//W3C//DTD SVG 1.1//EN" "http://www.w3.org/Graphics/SVG/1.1/DTD/svg11.dtd">
<svg version="1.1" id="Capa_1" xmlns="http://www.w3.org/2000/svg" xmlns:xlink="http://www.w3.org/1999/xlink" x="0px" y="0px"
	 width="31.895px" height="31.895px" viewBox="0 0 31.895 31.895" style="enable-background:new 0 0 31.895 31.895;"
	 xml:space="preserve">
<g>
	<path d="M31.375,4.772c-0.316-0.24-0.746-0.321-1.128-0.211l-8.593,2.402l-9.865-2.414c-0.199-0.049-0.41-0.049-0.609,0
		L0.986,7.043C0.416,7.183,0,7.692,0,8.281v17.828c0,0.393,0.196,0.762,0.504,1.001c0.226,0.179,0.518,0.272,0.798,0.272
		c0.103,0,0.209-0.016,0.311-0.041l9.879-2.469l9.88,2.469c0.215,0.056,0.448,0.054,0.663-0.008l8.921-2.549
		c0.546-0.156,0.938-0.656,0.938-1.225V5.788C31.895,5.389,31.693,5.014,31.375,4.772z M12.744,9.249
		c0-0.444,0.204-0.864,0.553-1.138c0.35-0.275,0.805-0.373,1.237-0.268l4.753,1.162c0.648,0.158,1.104,0.739,1.104,1.405v12.208
		c0,0.444-0.205,0.864-0.557,1.139c-0.352,0.275-0.809,0.371-1.241,0.264l-4.753-1.188c-0.644-0.16-1.096-0.74-1.096-1.402V9.249z
		 M2.549,10.415c0-0.667,0.456-1.247,1.103-1.405l4.753-1.16c0.431-0.105,0.887-0.007,1.236,0.268
		c0.349,0.274,0.553,0.693,0.553,1.138V21.44c0,0.664-0.452,1.244-1.096,1.402L4.345,24.03c-0.432,0.107-0.89,0.012-1.241-0.264
		c-0.351-0.273-0.556-0.695-0.556-1.141L2.549,10.415L2.549,10.415z M29.346,21.509c0,0.646-0.43,1.215-1.051,1.393l-3.512,1
		c-0.436,0.125-0.906,0.037-1.268-0.234c-0.363-0.271-0.576-0.701-0.576-1.154v-12.16c0-0.649,0.434-1.219,1.059-1.394l3.514-0.981
		c0.438-0.122,0.902-0.033,1.264,0.241c0.359,0.274,0.572,0.7,0.572,1.152v12.138H29.346z"/>
</g>
<g>
</g>
<g>
</g>
<g>
</g>
<g>
</g>
<g>
</g>
<g>
</g>
<g>
</g>
<g>
</g>
<g>
</g>
<g>
</g>
<g>
</g>
<g>
</g>
<g>
</g>
<g>
</g>
<g>
</g>
</svg>
